<svg width="631" height="359" viewBox="0 0 631 359" fill="none" xmlns="http://www.w3.org/2000/svg">
<path d="M2.93489 129.69C-1.12249 146.677 -0.209722 164.266 5.63488 182.357C13.1453 220.946 28.6003 248.152 52.6978 265.254C60.6281 270.885 69.5232 275.364 79.3831 278.693C92.3454 287.504 105.622 293.181 119.337 295.799L120.383 295.999C150.977 301.482 183.442 292.387 219.451 268.224C248.935 254.134 271.033 231.746 291.165 207.694C297.85 223.132 305.264 239.137 313.76 255.348C342.331 309.872 382.504 344.254 429.939 354.78C453.77 360.061 478.796 358.87 502.979 351.726C543.448 351.789 582.048 335.466 600.02 296.911C603.041 290.451 605.706 283.829 608.003 277.077C626.078 251.961 633.82 221.271 629.474 189.692C623.114 143.48 591.948 102.377 546.104 79.7386C526.421 70.0222 508.431 63.8759 491.854 60.7113C413.868 45.8235 367.279 96.9404 324.522 152.656C317.266 125.831 306.478 97.6178 282.021 65.8417C256.806 33.0748 228.501 13.8495 196.15 7.67351L195.43 7.53615C192.306 6.69532 189.094 5.93893 185.795 5.26697C115.504 -9.05122 72.0365 14.9757 47.918 37.618C22.8296 61.1638 6.96556 94.4386 2.93489 129.69ZM491.877 79.9578C515.356 83.1668 536.43 94.0598 555.099 112.637C523.003 90.8254 479.556 78.853 436.27 85.3682C443.214 83.2566 450.295 81.6302 457.464 80.5008C468.883 79.0832 480.42 78.9011 491.877 79.9578ZM596.208 282.501C593.69 285.378 591.015 288.157 588.183 290.838C602.833 267.404 608.734 240.138 607.475 213.424C607.593 205.867 607.144 198.311 606.13 190.822C611.647 210.349 612.422 231.39 608.291 253.086C605.544 263.93 601.496 273.778 596.207 282.501L596.208 282.501ZM449.782 336.291C424.519 327.101 403.817 317.7 386.785 308.104C370.61 292.863 357.531 273.084 348.653 249.813C348.283 248.851 347.912 247.889 347.54 246.926C360.728 271.014 382.289 295.087 421.591 319.907C437.455 329.924 452.476 335.604 466.387 338.26C479.857 340.87 493.713 340.76 507.143 337.937C495.351 341.07 483.564 342.624 471.925 342.581C464.402 341.015 457.002 338.912 449.78 336.287L449.782 336.291ZM431.731 335.71C427.661 334.275 423.669 332.625 419.773 330.767C423.629 332.419 427.615 334.064 431.73 335.703L431.731 335.71ZM304.252 191.624C305.925 189.524 307.596 187.43 309.266 185.341C309.97 184.456 310.678 183.567 311.389 182.671C323.088 204.105 333.796 227.343 343.171 251.919C349.59 268.741 358.139 283.807 368.424 296.758C319.85 263.608 309.884 228.322 304.253 191.609L304.252 191.624ZM82.0429 273.402C75.1772 268.677 68.3828 263.011 61.6597 256.405C73.9208 266.452 88.1118 274.183 103.94 278.451C96.1298 277.328 88.8307 275.645 82.0429 273.402ZM9.12076 167.474C7.47406 155.323 7.32928 143.014 8.68969 130.827C8.93095 129.843 9.19085 128.861 9.46938 127.881C9.75312 131.058 10.16 134.255 10.6901 137.473C10.396 142.26 10.2992 147.253 10.4273 152.467C10.9117 172.1 16.4599 192.962 26.3049 212.079C19.7239 201.645 14.7634 191.418 11.4233 181.399C10.5563 176.922 9.78876 172.281 9.12076 167.474ZM320.162 171.698C322.257 176.579 324.404 181.45 326.598 186.27C328.898 196.143 331.288 205.911 334.373 215.621C328.383 202.457 322.038 189.815 315.338 177.695C316.944 175.695 318.555 173.696 320.169 171.7L320.162 171.698ZM22.455 187.655C29.038 206.244 39.4967 223.864 53.4927 238.78C66.9982 253.169 82.5261 263.937 99.4995 270.98C61.3877 258.16 34.0584 223.947 22.455 187.655ZM57.7684 234.757C45.0556 221.167 35.1704 205.18 28.6879 187.726C43.2453 214.379 64.8498 238.576 89.8525 254.184C128.746 278.458 175.73 278 225.73 252.854C228.593 251.414 231.387 249.936 234.113 248.421C230.702 251.207 227.345 253.807 224.041 256.219C218.507 259.194 212.785 261.802 206.91 264.027C149.837 285.599 95.475 274.937 57.7684 234.757ZM261.615 223.441C225.959 249.998 156.465 288.845 92.957 249.202C59.508 228.322 32.3757 191.608 20.8563 154.786C18.6308 134.193 21.3582 113.642 29.5212 95.4996C31.5935 90.8836 33.9643 86.4077 36.6185 82.1005C46.9629 70.8754 59.9547 59.8768 75.5938 49.1047C80.4245 45.7806 85.2228 42.7494 89.9886 40.0114C123.702 29.3519 163.937 36.0377 203.36 58.8735C213.879 64.9669 224.361 72.6824 234.677 81.8291C249.144 104.018 260.348 131.994 272.835 163.179C277.211 174.112 281.82 185.619 286.826 197.52C278.335 206.554 269.897 215.303 261.614 223.443L261.615 223.441ZM206.3 53.787C179.374 38.192 152 29.8895 126.362 29.2293C142.269 28.2577 158.226 29.9414 173.58 34.2116C192.524 39.484 207.286 49.1873 219.588 62.3381C215.174 59.2188 210.744 56.3684 206.3 53.787ZM339.397 212.124C370.174 270.556 391.172 294.096 450.519 320.76C460.879 325.412 471.747 328.84 482.901 330.973C488.59 332.061 494.34 332.8 500.119 333.187C479.09 336.269 453.37 333.021 424.717 314.925C368.839 279.641 350.087 247.036 339.396 212.13L339.397 212.124ZM510.174 343.189C507.5 344.155 504.814 345.043 502.117 345.853C501.123 345.854 500.13 345.83 499.134 345.801C502.815 345.08 506.495 344.209 510.174 343.189ZM545.781 322.026C545.443 322.137 545.101 322.247 544.764 322.355C563.863 310.16 580.112 292.444 591.263 272.447C585.289 286.186 576.702 298.63 565.979 309.086C559.503 313.788 552.758 318.108 545.781 322.026ZM597.801 157.052C593.765 145.914 588.527 135.25 582.18 125.25C593.214 138.599 601.248 154.465 606.012 172.472C606.095 172.793 606.17 173.111 606.254 173.431C603.825 167.778 601.001 162.305 597.801 157.052ZM580.941 145.8C593.041 165.341 600.343 188.905 601.602 212.962C601.562 216.173 601.41 219.375 601.139 222.563C597.741 262.442 568.293 304.829 531.116 323.351C528.671 324.569 526.08 325.751 523.337 326.855C500.464 329.441 475.685 325.629 452.923 315.401C392.188 288.115 373.464 265.472 340.614 201.761C337.691 196.092 334.891 190.265 332.184 184.353C331.779 182.62 331.375 180.872 330.973 179.11C329.76 173.853 328.543 168.569 327.235 163.241C336.364 152.47 345.788 141.897 355.879 132.091C362.783 125.52 370.119 119.418 377.838 113.828C440.848 72.5043 518.45 88.4456 563.511 126.34C567.867 130 572.006 133.911 575.908 138.052C577.61 140.56 579.291 143.134 580.941 145.8ZM307.238 175.452C305.708 177.124 304.182 178.795 302.658 180.464C302.5 179.33 302.344 178.195 302.19 177.061C301.56 172.475 300.925 167.868 300.227 163.242C302.629 167.205 304.997 171.239 307.331 175.343L307.238 175.452ZM296.377 177.863C296.754 180.598 297.134 183.326 297.518 186.045C295.42 188.318 293.324 190.578 291.23 192.826C286.626 181.825 282.357 171.155 278.288 160.991C268.882 137.497 260.187 115.781 250.282 96.8787C264.829 112.07 278.891 130.034 292.076 150.259C293.853 159.525 295.119 168.738 296.377 177.863ZM239.39 78.1946C223.696 54.1783 204.155 36.6259 175.156 28.5536C161.188 24.6712 146.729 22.8445 132.233 23.1308C178.119 13.1525 221.035 32.0616 260.348 79.7891C275.353 98.0053 283.435 116.304 288.41 134.452C272.923 112.431 256.395 93.4236 239.39 78.1946ZM21.8225 90.5978C20.3221 92.6224 18.9004 94.6549 17.5571 96.6954C21.7246 80.8597 30.7019 67.8042 44.1736 58.1813C34.8233 67.5421 27.2498 78.5263 21.8225 90.5978ZM56.0906 260.47C41.0222 249.763 29.496 234.787 21.3312 215.172C22.6055 217.2 23.9287 219.23 25.3174 221.268C36.8609 238.164 48.565 252.194 60.4295 263.359C58.9529 262.432 57.5032 261.473 56.0906 260.47ZM121.42 290.217C114.297 288.924 107.35 286.8 100.722 283.888C124.74 287.73 153.435 286.353 187.232 279.797C163.867 290.508 142.13 293.932 121.42 290.217ZM299.283 197.772C300.82 207.056 302.722 216.246 305.502 225.331C301.932 217.655 298.551 210.083 295.359 202.617C296.686 201.012 297.989 199.391 299.29 197.774L299.283 197.772ZM435.016 349.835C433.747 349.593 432.482 349.331 431.219 349.051C390.063 339.918 354.491 311.954 327.561 267.809C339.818 283.293 357.478 298.386 383.458 313.021C400.22 328.608 420.141 339.585 442.112 344.883C451.706 347.192 461.533 348.393 471.401 348.463C475.131 349.224 478.883 349.854 482.655 350.356C466.681 352.921 450.597 352.809 435.016 349.835ZM522.728 344.482C535.362 338.886 547.297 331.826 558.29 323.447C560.574 322.416 562.82 321.329 565.001 320.145C576.395 313.945 586.092 305.821 593.973 295.971C579.813 324.874 552.913 340.064 522.719 344.478L522.728 344.482ZM623.664 190.494C626.824 213.455 623.263 235.925 613.736 255.917C613.879 255.217 614.02 254.518 614.153 253.822C615.11 249.944 615.909 245.95 616.549 241.84C619.952 219.848 618.319 196.004 611.698 170.971C603.209 138.894 584.771 113.29 557.973 96.1052C555.144 93.5062 552.217 91.0427 549.193 88.7146C548.041 87.8315 546.854 86.951 545.631 86.0731C588.556 108.049 617.66 146.92 623.655 190.491L623.664 190.494ZM554.399 100.796C564.987 110.607 574.087 122.373 581.407 135.335C581.081 134.983 580.76 134.629 580.432 134.28C569.837 118.842 556.515 104.059 540.052 92.9152C540.479 93.117 540.91 93.3081 541.334 93.5132C545.825 95.6882 550.187 98.1196 554.399 100.796ZM419.86 78.6278C465.741 62.0098 500.879 68.5592 525.749 80.9351C511.889 76.427 497.231 73.9478 482.331 73.4888C476.224 73.1927 470.103 73.3416 464.016 73.9344C445.312 75.4275 426.981 80.0015 409.762 87.4719C403.668 90.1209 397.741 93.1404 392.015 96.5134C402.327 87.8822 411.72 81.5735 419.86 78.6278ZM383.107 96.4956C376.989 101.896 370.617 107.971 364.062 114.541C370.208 108.097 376.538 102.035 383.107 96.4956ZM318.233 151.96L316.551 147.901C306.364 123.33 296.05 98.4326 282.491 76.3098C302.101 103.599 311.668 128.338 318.233 151.96ZM193.674 13.1388C261.876 31.2752 285.834 89.0911 311.138 150.157C312.923 154.458 314.724 158.786 316.543 163.139C315.01 165.172 313.478 167.206 311.945 169.24L311.177 170.266C306.787 162.621 302.276 155.234 297.643 148.104C292.982 124.4 284.84 100.273 264.889 76.0569C234.994 39.7667 204.874 22.4408 176.409 17.0068C156.808 13.265 137.992 15.1639 120.565 20.3877C144.864 12.2892 169.498 8.72595 193.67 13.1381L193.674 13.1388ZM51.9188 41.8979C71.0246 23.9634 102.893 5.15548 151.68 6.96694C112.766 12.4872 75.475 32.3227 46.5911 49.5937C44.8592 50.6268 43.1854 51.7078 41.5699 52.8369C44.8052 48.9932 48.2607 45.3406 51.9188 41.8979Z" fill="#F05225"/>
</svg>
