<svg width="48" height="33" viewBox="0 0 48 33" fill="none" xmlns="http://www.w3.org/2000/svg">
    <path fill-rule="evenodd" clip-rule="evenodd" d="M31.6954 5.01893C29.2295 4.00587 26.5879 3.48965 23.9221 3.49991C12.7667 3.53877 3.75 12.7598 3.75 23.982V28.8124H44.25V23.7499C44.25 21.0841 43.7237 18.4445 42.7011 15.9825C41.6786 13.5206 40.18 11.2848 38.2914 9.40339C36.4028 7.52198 34.1612 6.032 31.6954 5.01893ZM23.9097 0.124928C27.0197 0.113047 30.1013 0.715296 32.9779 1.89713C35.8548 3.07904 38.4699 4.81735 40.6733 7.01232C42.8767 9.2073 44.6251 11.8157 45.818 14.688C47.0109 17.5603 47.625 20.6398 47.625 23.7499V28.8124C47.625 29.7075 47.2694 30.566 46.6365 31.1989C46.0035 31.8318 45.1451 32.1874 44.25 32.1874H3.75C2.8549 32.1874 1.99645 31.8318 1.36351 31.1989C0.730578 30.566 0.375 29.7075 0.375 28.8124V23.982C0.375 10.9465 10.8498 0.170768 23.9097 0.124928Z" fill="#F05225"/>
    <path fill-rule="evenodd" clip-rule="evenodd" d="M24 0.124962C24.932 0.124962 25.6875 0.880481 25.6875 1.81246V8.56246C25.6875 9.49444 24.932 10.25 24 10.25C23.068 10.25 22.3125 9.49444 22.3125 8.56246V1.81246C22.3125 0.880481 23.068 0.124962 24 0.124962Z" fill="#F05225"/>
    <path fill-rule="evenodd" clip-rule="evenodd" d="M1.17029 17.6392C1.41133 16.739 2.33655 16.2045 3.23682 16.4456L9.77588 18.1964C10.6762 18.4374 11.2106 19.3626 10.9695 20.2629C10.7285 21.1632 9.80327 21.6976 8.903 21.4565L2.36393 19.7058C1.46366 19.4647 0.929252 18.5395 1.17029 17.6392Z" fill="#F05225"/>
    <path fill-rule="evenodd" clip-rule="evenodd" d="M46.8289 17.6392C47.0699 18.5395 46.5355 19.4647 45.6353 19.7058L39.0962 21.4565C38.1959 21.6976 37.2707 21.1632 37.0297 20.2629C36.7886 19.3626 37.323 18.4374 38.2233 18.1964L44.7624 16.4456C45.6626 16.2045 46.5879 16.739 46.8289 17.6392Z" fill="#F05225"/>
    <path fill-rule="evenodd" clip-rule="evenodd" d="M34.2664 10.3668C35.0057 10.9344 35.1449 11.9937 34.5774 12.733L20.1493 31.5275C19.5817 32.2668 18.5224 32.406 17.7831 31.8385C17.0438 31.271 16.9046 30.2116 17.4721 29.4723L31.9003 10.6778C32.4678 9.93855 33.5271 9.79932 34.2664 10.3668Z" fill="#F05225"/>
</svg>
