<svg width="168" height="40" viewBox="0 0 168 40" fill="none" xmlns="http://www.w3.org/2000/svg">
<g clip-path="url(#clip0_1431_695)">
<path d="M71.9678 2.10956C71.9678 2.52699 71.844 2.93504 71.6121 3.28206C71.3803 3.62908 71.0507 3.89946 70.6652 4.05899C70.2796 4.21851 69.8554 4.26001 69.4463 4.17822C69.0372 4.09643 68.6615 3.89504 68.3669 3.59953C68.0722 3.30403 67.8718 2.92769 67.791 2.51816C67.7102 2.10864 67.7526 1.68433 67.9129 1.29894C68.0732 0.913554 68.3442 0.584419 68.6916 0.353196C69.0389 0.121973 69.447 -0.000943263 69.8642 5.45071e-06C70.4226 0.00127513 70.9576 0.224091 71.352 0.619572C71.7463 1.01505 71.9678 1.5509 71.9678 2.10956Z" fill="#F05225"/>
<path d="M71.9295 29.6632C69.5336 29.4954 67.9859 26.9639 67.7942 24.1208C67.7942 23.9003 67.7942 7.12933 67.7942 5.31703C68.4037 5.72052 69.1191 5.93409 69.8499 5.93072C70.5902 5.92913 71.3136 5.70898 71.9295 5.29785C71.9487 5.38415 71.9295 29.3324 71.9295 29.6632Z" fill="#101010"/>
<path d="M84.139 10.6197C83.9952 13.2183 81.6616 14.786 79.1843 14.7908H78.8728C78.8728 18.5065 78.8728 29.5241 78.8728 29.6009C76.2948 29.4618 74.7614 27.0982 74.7519 24.5955C74.7519 24.5955 74.7519 5.37456 74.7519 5.29785C77.3251 5.44168 78.8968 7.80534 78.8968 10.308V10.5957C79.9605 10.5957 83.885 10.6149 84.139 10.6197Z" fill="#101010"/>
<path d="M63.793 23.1428C62.968 24.8413 61.758 26.3235 60.2594 27.4715C58.7609 28.6195 57.0151 29.4016 55.1612 29.7554C53.3072 30.1093 51.3963 30.0252 49.5806 29.5098C47.7649 28.9943 46.0946 28.0619 44.7026 26.7866L44.5636 26.6955V27.5106V29.6681C44.5636 34.2468 44.5636 39.7604 44.5636 40.0001C41.9856 39.8515 40.4762 37.4926 40.4714 34.7789C40.4714 33.6475 40.4714 31.6338 40.4714 29.3804V29.064C40.4714 26.4414 40.5002 23.5456 40.5097 21.3929V18.8039C40.5097 18.6073 40.4762 17.9457 40.4714 17.845C40.4609 16.5769 40.1489 15.3295 39.561 14.206C39.5083 14.1053 39.4508 14.0046 39.3933 13.904C38.7055 12.7078 37.723 11.7079 36.5394 10.9996C35.3558 10.2912 34.0106 9.89802 32.632 9.85745C32.5266 9.85745 32.426 9.85745 32.3254 9.85745C30.7107 9.86444 29.1351 10.3554 27.8019 11.267L27.5096 11.4971L27.4425 11.5547C27.3515 11.6314 27.2605 11.7081 27.1742 11.7896C27.1742 11.7896 27.1742 11.7896 27.1455 11.8136C26.992 11.9439 26.8464 12.0832 26.7094 12.2307C25.633 13.3292 24.8789 14.7024 24.5291 16.2005C24.4212 16.6358 24.3555 17.0806 24.3327 17.5285C24.3303 17.5525 24.3303 17.5766 24.3327 17.6005C24.3327 17.6484 24.3327 17.6964 24.3327 17.7491V17.8498C24.3327 17.8977 24.3327 17.9553 24.3327 18.0032C24.3529 19.7411 24.9278 21.427 25.9735 22.8148C27.0192 24.2026 28.4808 25.2197 30.1451 25.7174C31.2817 26.0424 32.4738 26.125 33.6442 25.9598C34.8147 25.7946 35.9375 25.3854 36.9399 24.7586C37.61 24.3042 38.2063 23.7496 38.708 23.1141V28.3112C38.1451 28.6624 37.5536 28.9655 36.9399 29.2174C34.8156 30.0645 32.4943 30.2889 30.2472 29.8644C28.0002 29.4399 25.9205 28.384 24.2512 26.8202V27.9037C24.2611 29.8296 23.8248 31.7316 22.9766 33.4605C21.5055 36.3755 18.985 38.4515 15.3097 39.4727C10.518 40.7912 6.31556 39.3528 2.8511 35.5748C3.83342 34.544 4.79177 33.5995 5.80763 32.6023C7.47038 34.52 9.48772 35.6803 12.037 35.7043C12.1663 35.7043 12.3005 35.7043 12.4299 35.7043C14.4078 35.6049 16.2755 34.7629 17.6602 33.3462C19.045 31.9296 19.8449 30.0427 19.9003 28.0619L19.9338 27.2804L19.7757 27.4099C18.3535 28.5559 16.6914 29.3664 14.913 29.7811C13.1346 30.1957 11.2856 30.2039 9.50365 29.8049C7.72166 29.4059 6.0525 28.6101 4.62033 27.4766C3.18815 26.3431 2.02982 24.9011 1.23148 23.2579C-1.43755 17.8546 0.316245 11.43 5.37637 7.89652C7.76111 6.28708 10.6414 5.58153 13.4995 5.9067C16.3576 6.23186 19.0061 7.56642 20.9688 9.67046C20.0859 10.8835 19.3957 12.2258 18.9228 13.6498L18.8125 13.4916C18.7838 13.4485 18.755 13.4005 18.7215 13.3574L18.5586 13.1273L18.4148 12.9451C18.3889 12.9092 18.36 12.8755 18.3286 12.8444C18.3121 12.817 18.291 12.7927 18.2663 12.7725C17.3167 11.6367 16.075 10.7824 14.6752 10.3017C13.2755 9.82102 11.7711 9.73236 10.3246 10.0453C8.87819 10.3582 7.54476 11.0609 6.46855 12.0772C5.39234 13.0935 4.61429 14.3849 4.21853 15.8117C3.82278 17.2384 3.82439 18.7463 4.22318 20.1722C4.62197 21.5982 5.40277 22.8879 6.48114 23.9019C7.55952 24.9159 8.89444 25.6157 10.3415 25.9256C11.7887 26.2354 13.2929 26.1436 14.6916 25.6599L15.027 25.5401C15.0845 25.5401 15.142 25.4969 15.1995 25.4681C15.257 25.4394 15.4104 25.3818 15.5158 25.3291C16.9268 24.6723 18.1181 23.6218 18.9467 22.3038C19.0138 22.2079 19.0665 22.1072 19.124 22.0113C19.8479 20.7491 20.2171 19.3145 20.1926 17.8594C20.1926 17.4758 20.2357 17.0923 20.2549 16.7135C20.4715 14.8486 21.0965 13.0544 22.0853 11.4588C22.1297 11.3773 22.1793 11.2988 22.2339 11.2239C22.5407 10.7501 22.8801 10.2983 23.2497 9.87183C23.2976 9.8143 23.3504 9.75197 23.4031 9.69923C23.4558 9.64649 23.4845 9.60334 23.5277 9.56019C25.3446 7.51518 27.8364 6.19282 30.5476 5.83491C31.8079 5.66897 33.0851 5.67865 34.3427 5.86368C37.1265 6.2539 39.6775 7.63217 41.5304 9.74718L41.6214 9.84786L41.655 9.89101C42.0267 10.3107 42.3663 10.7579 42.6708 11.2287C42.6992 11.2684 42.7248 11.3101 42.7475 11.3533C42.7475 11.3533 42.7475 11.3533 42.7475 11.3821C42.7887 11.44 42.8255 11.5009 42.8577 11.5643L42.92 11.6745V11.7081C42.9727 11.804 43.0302 11.8999 43.0829 12.0006L43.1165 12.0629C43.174 12.1684 43.2267 12.2738 43.2794 12.3793C43.3321 12.4848 43.3465 12.5136 43.3752 12.5807C43.4232 12.6727 43.4664 12.7671 43.5046 12.8636L43.6196 13.1177C43.6627 13.2231 43.7059 13.3238 43.7442 13.4293C43.7825 13.5348 43.864 13.7505 43.9215 13.9087C44.0365 14.2348 44.1419 14.5704 44.2378 14.9108C44.4979 15.9161 44.6299 16.9503 44.6307 17.9888C44.6273 18.462 44.6723 18.9343 44.7649 19.3984C44.9339 20.2559 45.2414 21.0801 45.6753 21.8387C45.7328 21.9346 45.7903 22.0353 45.8526 22.1216C46.2962 22.8195 46.8459 23.4438 47.4818 23.9723C48.9613 25.2973 50.8773 26.0297 52.863 26.0291C54.1035 26.0313 55.3275 25.744 56.4376 25.1901C57.4025 24.7032 58.2599 24.0275 58.959 23.203C59.658 22.3785 60.1846 21.422 60.5074 20.3901C60.8302 19.3583 60.9427 18.2721 60.8383 17.196C60.7338 16.1198 60.4146 15.0756 59.8993 14.1251C59.3841 13.1747 58.6835 12.3374 57.8389 11.6629C56.9944 10.9884 56.0231 10.4904 54.9826 10.1984C53.9421 9.90636 52.8537 9.82629 51.7817 9.96291C50.7098 10.0995 49.6761 10.4501 48.742 10.9937C48.6654 11.0369 48.5839 11.0848 48.5072 11.1376C47.6264 11.7054 46.8633 12.438 46.2599 13.2951C46.1497 13.4389 46.0395 13.5875 45.9388 13.7409C45.4978 12.3126 44.8278 10.9654 43.955 9.75197C44.0233 9.6614 44.0969 9.57494 44.1755 9.49307C45.3969 8.20998 46.8845 7.21023 48.5336 6.56414C50.1827 5.91806 51.9532 5.64132 53.7207 5.75341C53.9315 5.75341 54.1424 5.78697 54.3436 5.81094C55.4661 5.94569 56.5644 6.23615 57.6068 6.67394C57.8848 6.78901 58.1579 6.91846 58.4262 7.0575L58.9054 7.30681C59.1642 7.46023 59.4181 7.62004 59.6673 7.78625C64.6891 11.3389 66.4381 17.7395 63.793 23.1428Z" fill="#101010"/>
<path d="M105.755 14.6423C107.356 14.5722 108.921 15.1393 110.106 16.2197C110.662 16.7596 111.098 17.4113 111.384 18.1319C111.671 18.8525 111.802 19.6256 111.768 20.4004V29.3228H109.507V21.1435C109.581 19.9741 109.19 18.8227 108.419 17.9409C108.017 17.5428 107.536 17.2339 107.006 17.034C106.477 16.8341 105.912 16.7478 105.347 16.7806C104.77 16.7649 104.196 16.8635 103.657 17.0709C103.119 17.2783 102.626 17.5902 102.209 17.9888C101.784 18.4026 101.452 18.9013 101.233 19.4523C101.014 20.0033 100.914 20.5943 100.939 21.1867V29.3228H98.6772V21.1435C98.7502 19.976 98.3632 18.8263 97.5991 17.9409C97.1968 17.5457 96.7157 17.2398 96.1873 17.0432C95.6589 16.8466 95.095 16.7636 94.5323 16.7998C93.9555 16.7846 93.3813 16.8835 92.8427 17.0908C92.3041 17.2982 91.8117 17.6098 91.3937 18.008C90.9694 18.4218 90.637 18.9205 90.4182 19.4715C90.1994 20.0225 90.0991 20.6135 90.1239 21.2059V29.3228H87.8478V14.9395H90.0856V16.9916C90.6083 16.2094 91.343 15.5924 92.2035 15.2128C93.0636 14.8385 93.9922 14.6475 94.9301 14.6519C96.0804 14.6199 97.219 14.891 98.2316 15.4382C99.143 15.9479 99.877 16.7241 100.335 17.6628C100.82 16.6715 101.616 15.8666 102.602 15.371C103.581 14.8835 104.661 14.6339 105.755 14.6423Z" fill="#F05225"/>
<path d="M121.443 14.6422C122.35 14.6168 123.252 14.7888 124.086 15.1464C124.92 15.504 125.666 16.0387 126.273 16.7134C127.571 18.1905 128.257 20.1078 128.19 22.0736C128.192 22.3572 128.176 22.6407 128.142 22.9222H116.642C116.666 23.5639 116.816 24.1946 117.084 24.7782C117.352 25.3617 117.732 25.8867 118.203 26.3231C118.674 26.7595 119.226 27.0987 119.828 27.3214C120.43 27.5441 121.07 27.6458 121.711 27.6208C123.407 27.6346 125.041 26.9842 126.264 25.8085L127.481 27.3619C126.693 28.1083 125.765 28.6913 124.751 29.0773C123.737 29.4632 122.657 29.6444 121.572 29.6104C120.603 29.6454 119.636 29.479 118.734 29.1217C117.832 28.7644 117.013 28.224 116.33 27.5345C115.646 26.8167 115.113 25.9682 114.764 25.0399C114.415 24.1115 114.257 23.1222 114.298 22.1311C114.262 21.144 114.422 20.1594 114.77 19.235C115.118 18.3105 115.647 17.4647 116.325 16.747C116.983 16.0561 117.778 15.5116 118.66 15.1489C119.542 14.7863 120.49 14.6136 121.443 14.6422ZM121.4 16.6607C120.812 16.6407 120.225 16.7381 119.675 16.9472C119.124 17.1563 118.621 17.4728 118.194 17.8785C117.33 18.7397 116.789 19.8723 116.661 21.0859H125.895C125.815 19.8747 125.305 18.7318 124.457 17.8641C124.055 17.4679 123.577 17.1571 123.051 16.9503C122.526 16.7435 121.964 16.645 121.4 16.6607Z" fill="#F05225"/>
<path d="M136.997 14.6423C138.006 14.5991 139.01 14.7971 139.926 15.2198C140.843 15.6426 141.646 16.2779 142.268 17.0731V7.43628H144.53V29.3229H142.268V27.1798C141.649 27.978 140.846 28.6155 139.929 29.0385C139.012 29.4616 138.006 29.6578 136.997 29.6106C136.043 29.6325 135.095 29.4544 134.213 29.0878C133.332 28.7212 132.537 28.1742 131.88 27.4818C131.195 26.7707 130.659 25.9297 130.305 25.0083C129.95 24.0869 129.783 23.1038 129.814 22.1168C129.786 21.1346 129.954 20.1566 130.309 19.2403C130.663 18.3239 131.197 17.4877 131.88 16.7806C132.537 16.0873 133.331 15.5389 134.213 15.1707C135.094 14.8025 136.042 14.6225 136.997 14.6423ZM137.27 16.7663C136.577 16.7431 135.887 16.869 135.246 17.1353C134.606 17.4016 134.029 17.8022 133.557 18.3101C132.599 19.3422 132.083 20.7087 132.119 22.1168C132.075 23.5349 132.592 24.9131 133.557 25.9524C134.04 26.4395 134.615 26.826 135.248 27.0898C135.881 27.3536 136.56 27.4894 137.246 27.4894C137.932 27.4894 138.611 27.3536 139.245 27.0898C139.878 26.826 140.453 26.4395 140.936 25.9524C141.902 24.9139 142.419 23.5351 142.374 22.1168C142.398 21.4143 142.284 20.7138 142.037 20.0556C141.791 19.3973 141.416 18.7944 140.936 18.2813C140.465 17.7864 139.896 17.3968 139.264 17.1382C138.632 16.8795 137.953 16.7577 137.27 16.7806V16.7663Z" fill="#F05225"/>
<path d="M149.451 8.21292C149.664 8.21037 149.875 8.25161 150.071 8.33409C150.267 8.41656 150.444 8.53851 150.591 8.69236C150.747 8.8392 150.87 9.01705 150.953 9.21443C151.035 9.41181 151.075 9.62432 151.071 9.83823C151.073 10.0512 151.032 10.2624 150.95 10.4588C150.867 10.6551 150.745 10.8323 150.591 10.9793C150.44 11.1282 150.26 11.2452 150.062 11.3234C149.865 11.4017 149.654 11.4395 149.441 11.4348C149.231 11.4394 149.021 11.4012 148.826 11.3225C148.631 11.2439 148.453 11.1264 148.305 10.9771C148.156 10.8279 148.039 10.65 147.961 10.4542C147.883 10.2585 147.845 10.0489 147.851 9.83823C147.844 9.62626 147.881 9.41524 147.96 9.21817C148.038 9.0211 148.156 8.84216 148.306 8.69236C148.452 8.53602 148.63 8.41245 148.827 8.32981C149.024 8.24717 149.237 8.20733 149.451 8.21292ZM150.591 29.3084H148.315V14.9251H150.591V29.3084Z" fill="#F05225"/>
<path d="M168 29.3227H165.733V27.1796C165.114 27.9784 164.312 28.6164 163.395 29.0395C162.477 29.4626 161.472 29.6584 160.463 29.6104C159.508 29.6321 158.559 29.454 157.677 29.0874C156.794 28.7208 155.999 28.1739 155.34 27.4817C154.655 26.7706 154.12 25.9295 153.765 25.0081C153.411 24.0867 153.244 23.1036 153.275 22.1167C153.249 21.1331 153.42 20.1543 153.778 19.2379C154.136 18.3215 154.674 17.486 155.359 16.7805C156.019 16.0898 156.815 15.5443 157.697 15.1786C158.579 14.8129 159.527 14.6351 160.482 14.6566C161.49 14.6129 162.495 14.8107 163.411 15.2335C164.328 15.6563 165.131 16.2918 165.753 17.0873V14.9298H168.019L168 29.3227ZM160.755 16.7805C160.061 16.7571 159.371 16.8827 158.731 17.1491C158.09 17.4154 157.514 17.8162 157.041 18.3243C156.082 19.3557 155.566 20.7227 155.604 22.1311C155.56 23.5491 156.076 24.9273 157.041 25.9666C157.525 26.4538 158.1 26.8405 158.734 27.1044C159.367 27.3682 160.047 27.5041 160.733 27.5041C161.42 27.5041 162.099 27.3682 162.733 27.1044C163.366 26.8405 163.942 26.4538 164.425 25.9666C165.39 24.927 165.906 23.549 165.863 22.1311C165.911 20.7125 165.394 19.3329 164.425 18.2955C163.955 17.7982 163.385 17.406 162.752 17.1449C162.12 16.8838 161.439 16.7596 160.755 16.7805Z" fill="#F05225"/>
</g>
<defs>
<clipPath id="clip0_1431_695">
<rect width="168" height="40" fill="white"/>
</clipPath>
</defs>
</svg>
