<svg width="28" height="28" viewBox="0 0 28 28" fill="none" xmlns="http://www.w3.org/2000/svg">
<g clip-path="url(#clip0_943_3357)">
<path d="M12.5 15.6558C12.5 15.8093 12.6657 15.9055 12.799 15.8295L15.6959 14.1782C15.8304 14.1016 15.8306 13.9078 15.6963 13.8309L12.7994 12.1715C12.6661 12.0951 12.5 12.1914 12.5 12.3451V15.6558Z" fill="#888888"/>
<path d="M14 0C11.2311 0 8.52431 0.821086 6.22202 2.35943C3.91973 3.89777 2.12532 6.08427 1.06569 8.64243C0.00606595 11.2006 -0.271181 14.0155 0.269012 16.7313C0.809206 19.447 2.14258 21.9416 4.10051 23.8995C6.05845 25.8574 8.55301 27.1908 11.2687 27.731C13.9845 28.2712 16.7994 27.9939 19.3576 26.9343C21.9157 25.8747 24.1022 24.0803 25.6406 21.778C27.1789 19.4757 28 16.7689 28 14C28 10.287 26.525 6.72601 23.8995 4.10051C21.274 1.475 17.713 0 14 0ZM21.3684 16.4776C21.3687 16.8438 21.2968 17.2064 21.1568 17.5448C21.0168 17.8831 20.8116 18.1906 20.5528 18.4496C20.2939 18.7086 19.9866 18.9141 19.6483 19.0542C19.3101 19.1944 18.9475 19.2666 18.5813 19.2666H9.41869C9.05253 19.2666 8.68995 19.1944 8.35169 19.0542C8.01342 18.9141 7.70609 18.7086 7.44726 18.4496C7.18843 18.1906 6.98317 17.8831 6.84321 17.5448C6.70326 17.2064 6.63134 16.8438 6.63159 16.4776V11.5224C6.63134 11.1562 6.70326 10.7936 6.84321 10.4552C6.98317 10.1169 7.18843 9.8094 7.44726 9.5504C7.70609 9.2914 8.01342 9.08593 8.35169 8.94575C8.68995 8.80557 9.05253 8.73342 9.41869 8.73342H18.5813C18.9475 8.73342 19.3101 8.80557 19.6483 8.94575C19.9866 9.08593 20.2939 9.2914 20.5528 9.5504C20.8116 9.8094 21.0168 10.1169 21.1568 10.4552C21.2968 10.7936 21.3687 11.1562 21.3684 11.5224V16.4776Z" fill="white"/>
</g>
<defs>
<clipPath id="clip0_943_3357">
<rect width="28" height="28" fill="white"/>
</clipPath>
</defs>
</svg>
