<svg width="28" height="28" viewBox="0 0 28 28" fill="none" xmlns="http://www.w3.org/2000/svg">
<g clip-path="url(#clip0_943_3363)">
<path d="M15.1822 12.5649V12.5941H15.1634C15.1661 12.5891 15.1697 12.584 15.1732 12.5788C15.1764 12.5742 15.1796 12.5696 15.1822 12.5649Z" fill="white"/>
<path fill-rule="evenodd" clip-rule="evenodd" d="M28 14C28 21.732 21.732 28 14 28C6.26801 28 0 21.732 0 14C0 6.26801 6.26801 0 14 0C21.732 0 28 6.26801 28 14ZM21 20.2224V15.106C21 12.3663 19.6018 11.0912 17.7369 11.0912C16.2308 11.0912 15.559 11.9583 15.1822 12.5649V11.3007H12.3473C12.3853 12.1375 12.3473 20.2222 12.3473 20.2222H15.182V15.2394C15.182 14.972 15.2013 14.7072 15.2759 14.5165C15.4814 13.9829 15.9466 13.4319 16.7299 13.4319C17.7562 13.4319 18.1654 14.2504 18.1654 15.4489V20.2224H21ZM7.77778 8.5414C7.77778 7.66625 8.41217 7.00017 9.38183 7.00017C10.3517 7.00017 10.9476 7.66625 10.9664 8.5414C10.9664 9.39795 10.3517 10.0833 9.36302 10.0833H9.34462C8.39378 10.0833 7.77778 9.39795 7.77778 8.5414ZM10.78 20.2224H7.94626V11.3007H10.78V20.2224Z" fill="white"/>
</g>
<defs>
<clipPath id="clip0_943_3363">
<rect width="28" height="28" fill="white"/>
</clipPath>
</defs>
</svg>
