<svg width="28" height="28" viewBox="0 0 28 28" fill="none" xmlns="http://www.w3.org/2000/svg">
<g clip-path="url(#clip0_943_3361)">
<path d="M14 0C11.2311 0 8.52431 0.821086 6.22202 2.35943C3.91973 3.89777 2.12532 6.08427 1.06569 8.64243C0.00606595 11.2006 -0.271181 14.0155 0.269012 16.7313C0.809206 19.447 2.14258 21.9416 4.10051 23.8995C6.05845 25.8574 8.55301 27.1908 11.2687 27.731C13.9845 28.2712 16.7994 27.9939 19.3576 26.9343C21.9157 25.8747 24.1022 24.0803 25.6406 21.778C27.1789 19.4757 28 16.7689 28 14C28 10.287 26.525 6.72601 23.8995 4.10051C21.274 1.475 17.713 0 14 0ZM17.9826 9.11105C17.9826 9.37447 17.8721 9.47947 17.6142 9.47947C17.1187 9.47947 16.6232 9.47947 16.1295 9.49974C15.6358 9.52 15.3668 9.74474 15.3668 10.2605C15.3558 10.8132 15.3668 11.3547 15.3668 11.9184H17.4871C17.7892 11.9184 17.8924 12.0216 17.8924 12.3255C17.8924 13.0624 17.8924 13.8029 17.8924 14.5471C17.8924 14.8474 17.7966 14.9413 17.4926 14.9432H15.3484V20.9374C15.3484 21.2579 15.249 21.3592 14.9321 21.3592H12.6258C12.3476 21.3592 12.239 21.2505 12.239 20.9724V14.9524H10.4079C10.1205 14.9524 10.0174 14.8474 10.0174 14.5582C10.0174 13.8127 10.0174 13.0679 10.0174 12.3237C10.0174 12.0363 10.1261 11.9276 10.4097 11.9276H12.239V10.3158C12.2172 9.59177 12.391 8.87527 12.7418 8.24158C13.1066 7.60183 13.6911 7.11616 14.3868 6.87474C14.8384 6.71045 15.3156 6.62811 15.7961 6.63158H17.6068C17.8666 6.63158 17.9753 6.74579 17.9753 7C17.9845 7.70921 17.9845 8.41105 17.9826 9.11105Z" fill="white"/>
</g>
<defs>
<clipPath id="clip0_943_3361">
<rect width="28" height="28" fill="white"/>
</clipPath>
</defs>
</svg>
